<!-- icon666.com - MILLIONS vector ICONS FREE --><svg id="Layer_5_copy_2" viewBox="0 0 64 64" xmlns="http://www.w3.org/2000/svg" data-name="Layer 5 copy 2"><circle cx="58" cy="36" r="2" fill="#000000" style="fill: rgb(255, 255, 255);"></circle><circle cx="58" cy="30" r="1" fill="#000000" style="fill: rgb(255, 255, 255);"></circle><circle cx="7" cy="51" r="1" fill="#000000" style="fill: rgb(255, 255, 255);"></circle><circle cx="14" cy="15" r="1" fill="#000000" style="fill: rgb(255, 255, 255);"></circle><path d="m48.93 58a1 1 0 1 0 1 1 1 1 0 0 0 -1-1z" fill="#000000" style="fill: rgb(255, 255, 255);"></path><path d="m24.87 59h-9.7a3.13 3.13 0 0 1 -3.17-3.07v-37.65a2.94 2.94 0 0 1 .42-1.53 1 1 0 0 0 -1.72-1 5 5 0 0 0 -.7 2.55v37.63a4.94 4.94 0 0 0 1.08 3.07h-.08a1 1 0 0 0 0 2h13.87a1 1 0 1 0 0-2z" fill="#000000" style="fill: rgb(255, 255, 255);"></path><path d="m44.48 15h1.29a3.17 3.17 0 0 1 3.23 3.09v15a1 1 0 0 0 2 0v-15a5.17 5.17 0 0 0 -5.23-5.09h-1.29a1 1 0 0 0 0 2z" fill="#000000" style="fill: rgb(255, 255, 255);"></path><path d="m16.88 15h1.12a1 1 0 0 0 0-2h-1.12a1 1 0 0 0 0 2z" fill="#000000" style="fill: rgb(255, 255, 255);"></path><path d="m46 49.93a1 1 0 0 0 -1 1v2.59c0 .62-.52 1.48-1 1.48h-2.2a1 1 0 0 0 0 2h2.2c1.73 0 3-1.84 3-3.48v-2.59a1 1 0 0 0 -1-1z" fill="#000000" style="fill: rgb(255, 255, 255);"></path><path d="m26.51 55h-9.44a1.06 1.06 0 0 1 -1.07-1v-33.95a1.06 1.06 0 0 1 1.07-1.05h26.86a1.06 1.06 0 0 1 1.07 1.05v14.74a1 1 0 0 0 2 0v-14.74a3.07 3.07 0 0 0 -3.07-3.05h-26.86a3.07 3.07 0 0 0 -3.07 3.05v33.95a3.07 3.07 0 0 0 3.07 3h9.44a1 1 0 1 0 0-2z" fill="#000000" style="fill: rgb(255, 255, 255);"></path><path d="m20.41 15h20.5a1 1 0 0 0 0-2h-1l-.72-3.47a2.87 2.87 0 0 0 -2.73-2.53h-11.59a2.86 2.86 0 0 0 -2.76 2.51l-.73 3.49h-1a1 1 0 1 0 0 2zm3.66-5.1c0-.15.2-.9.8-.9h11.59c.6 0 .77.75.8.92l.64 3.08h-14.47z" fill="#000000" style="fill: rgb(255, 255, 255);"></path><path d="m49.29 35.3a1 1 0 0 0 0 1.43 1 1 0 0 0 1.42 0 1 1 0 0 0 0-1.43 1 1 0 0 0 -1.42 0z" fill="#000000" style="fill: rgb(255, 255, 255);"></path><path d="m52.33 42.58a4.1 4.1 0 0 0 .81-4.58 1 1 0 1 0 -1.82.83 2.1 2.1 0 0 1 -.41 2.31l-1.42 1.43-2.86-2.89.72-.73a1 1 0 0 0 0-1.41 1 1 0 0 0 -1.42 0l-15.63 15.86a1.07 1.07 0 0 0 -.19.28v.09a.36.36 0 0 0 0 .09l-1.42 5.75a1 1 0 0 0 .26 1 1 1 0 0 0 .71.29 1 1 0 0 0 .24 0l5.69-1.44h.08.09a.8.8 0 0 0 .27-.18zm-4.25 1.42-12.81 13-2.85-2.9 12.8-13zm-16.53 12 1.78 1.8-2.37.6z" fill="#000000" style="fill: rgb(255, 255, 255);"></path><path d="m51 48a1 1 0 0 0 -2 0v7.13a1 1 0 0 0 2 0z" fill="#000000" style="fill: rgb(255, 255, 255);"></path><path d="m45.13 59h-7.13a1 1 0 0 0 0 2h7.13a1 1 0 0 0 0-2z" fill="#000000" style="fill: rgb(255, 255, 255);"></path><path d="m20.41 26.87a.9.9 0 1 0 -.89-.9.89.89 0 0 0 .89.9z" fill="#000000" style="fill: rgb(255, 255, 255);"></path><path d="m41.8 25h-8.91a1 1 0 0 0 0 2h8.91a1 1 0 0 0 0-2z" fill="#000000" style="fill: rgb(255, 255, 255);"></path><path d="m42.8 33.11a1 1 0 0 0 -1-1h-21.39a1 1 0 1 0 0 2h21.39a1 1 0 0 0 1-1z" fill="#000000" style="fill: rgb(255, 255, 255);"></path><path d="m41 40.24a1 1 0 0 0 -1-1h-19.59a1 1 0 0 0 0 2h19.59a1 1 0 0 0 1-1z" fill="#000000" style="fill: rgb(255, 255, 255);"></path><path d="m29.33 27a1 1 0 0 0 0-2h-5a1 1 0 0 0 0 2z" fill="#000000" style="fill: rgb(255, 255, 255);"></path><path d="m20.41 45.48a1 1 0 0 0 0 2h14.26a1 1 0 0 0 0-2z" fill="#000000" style="fill: rgb(255, 255, 255);"></path><path d="m53 59h-1a1 1 0 0 0 0 2h1a1 1 0 0 0 0-2z" fill="#000000" style="fill: rgb(255, 255, 255);"></path></svg>