<!-- icon666.com - MILLIONS vector ICONS FREE --><svg enable-background="new 0 0 520 520" viewBox="0 0 520 520" xmlns="http://www.w3.org/2000/svg"><g id="_x31_94_x2C__Bezier_x2C__Creative_x2C__Curve_x2C__Design"><g><path d="m469.804 250.971c-3.33-76.982-48.69-147.129-120.354-180.971h61.557c4.646 22.795 24.848 40 48.994 40 27.57 0 50-22.43 50-50s-22.43-50-50-50c-24.146 0-44.349 17.205-48.994 40h-101.007v-30c0-5.523-4.478-10-10-10h-80c-5.523 0-10 4.477-10 10v30h-101.006c-4.646-22.795-24.848-40-48.994-40-27.57 0-50 22.43-50 50s22.43 50 50 50c24.146 0 44.348-17.205 48.994-40h61.558c-71.649 33.834-117.024 103.971-120.355 180.971-22.892 4.57-40.197 24.813-40.197 49.029 0 27.57 22.43 50 50 50s50-22.43 50-50c0-24.069-17.097-44.218-39.783-48.947 3.877-82.112 60.817-152.924 139.783-174.406v23.353c0 5.523 4.477 10 10 10h80c5.522 0 10-4.477 10-10v-23.353c78.966 21.482 135.906 92.293 139.784 174.405-22.687 4.73-39.784 24.878-39.784 48.948 0 27.57 22.43 50 50 50s50-22.43 50-50c0-24.215-17.305-44.459-40.196-49.029zm-379.804 49.029c0 16.542-13.458 30-30 30s-30-13.458-30-30 13.458-30 30-30 30 13.458 30 30zm370-270c16.542 0 30 13.458 30 30s-13.458 30-30 30-30-13.458-30-30 13.458-30 30-30zm-400 60c-16.542 0-30-13.458-30-30s13.458-30 30-30 30 13.458 30 30-13.458 30-30 30zm170 0c0-29.344 0-49.6 0-60h60v60zm230 240c-16.542 0-30-13.458-30-30s13.458-30 30-30 30 13.458 30 30-13.458 30-30 30z" fill="#000000" style="fill: rgb(139, 23, 255);"></path><path d="m267.737 133.667c-4.364-5.327-12.67-4.714-16.24 1.069l-130 210c-1.907 3.081-1.999 6.952-.239 10.12l43.139 77.649c-19.95 6.572-34.397 25.373-34.397 47.495v20c0 5.522 4.477 10 10 10h240c5.522 0 10-4.478 10-10v-20c0-22.122-14.447-40.923-34.397-47.494l43.139-77.649c1.76-3.168 1.669-7.039-.238-10.12-135.135-218.277-130.134-210.298-130.767-211.07zm-7.737 156.333c11.028 0 20 8.972 20 20s-8.972 20-20 20-20-8.972-20-20 8.972-20 20-20zm110 190v10h-220v-10c0-16.542 13.458-30 30-30h160c16.542 0 30 13.458 30 30zm-35.884-50h-148.232l-44.292-79.727 108.408-175.122v96.114c-17.233 4.451-30 20.13-30 38.734 0 22.056 17.944 40 40 40s40-17.944 40-40c0-18.604-12.768-34.282-30-38.734v-96.113l108.408 175.121z" fill="#000000" style="fill: rgb(139, 23, 255);"></path></g></g></svg>