<!-- icon666.com - MILLIONS vector ICONS FREE --><svg clip-rule="evenodd" fill-rule="evenodd" stroke-linejoin="round" stroke-miterlimit="2" viewBox="0 0 267 267" xmlns="http://www.w3.org/2000/svg"><path d="m169.538 231.272c.088-.599-.089-1.206-.485-1.665-.395-.458-.971-.721-1.576-.721h-68.287c-.606 0-1.181.263-1.577.721-.396.459-.572 1.066-.484 1.665l.33 2.249c1.568 10.662 10.716 18.562 21.492 18.562h28.764c10.777 0 19.924-7.9 21.492-18.562 0 0 .331-2.249.331-2.249zm-4.475 1.781c-1.324 8.546-8.684 14.864-17.348 14.864-8.925 0-19.838 0-28.764 0-8.663 0-16.024-6.318-17.347-14.864z" fill="#000000" style="fill: rgb(128, 0, 255);"></path><path d="m71.316 42.652c.8.151 1.615-.178 2.086-.842s.512-1.542.105-2.247l-3.882-6.724c-1.623-2.81-3.978-5.127-6.814-6.702-5.087-2.826-14.07-7.817-19.586-10.881-1.642-.912-3.642-.896-5.268.043-1.627.94-2.641 2.664-2.672 4.542-.105 6.308-.274 16.583-.37 22.401-.054 3.245.775 6.442 2.397 9.252 0 0 3.883 6.725 3.883 6.725.407.705 1.187 1.108 1.998 1.033.811-.076 1.503-.618 1.772-1.386l1.353-3.862s6.087 1.15 6.087 1.15c1.013.191 2.013-.386 2.353-1.359l2.048-5.847s6.088 1.15 6.088 1.15c1.013.192 2.013-.386 2.353-1.358l2.048-5.848s4.021.76 4.021.76zm-3.687-4.937-1.321-.249c-1.012-.192-2.013.386-2.353 1.358l-2.048 5.847s-6.088-1.15-6.088-1.15c-1.012-.191-2.012.386-2.353 1.359l-2.048 5.847s-6.088-1.15-6.088-1.15c-1.012-.191-2.012.386-2.353 1.358l-.444 1.269s-1.613-2.793-1.613-2.793c-1.244-2.156-1.88-4.61-1.839-7.1.096-5.818.266-16.093.37-22.402.007-.414.23-.794.589-1.001s.8-.211 1.162-.01c5.515 3.064 14.498 8.055 19.585 10.881 2.177 1.209 3.984 2.987 5.229 5.143z" fill="#000000" style="fill: rgb(128, 0, 255);"></path><path d="m35.065 33.166c-.013.75.379 1.449 1.026 1.83.647.38 1.448.384 2.098.008l16.716-9.651c.65-.375 1.048-1.071 1.042-1.821s-.416-1.44-1.072-1.804l-11.65-6.472c-1.642-.912-3.642-.896-5.268.043-1.627.94-2.641 2.664-2.672 4.542 0 0-.22 13.325-.22 13.325zm4.226-3.609.16-9.648c.007-.414.23-.794.589-1.001s.8-.211 1.162-.01c0 0 8.434 4.686 8.434 4.686z" fill="#000000" style="fill: rgb(128, 0, 255);"></path><path d="m193.16 39.563c-.407.705-.366 1.583.105 2.247s1.286.993 2.086.842l4.021-.76s2.047 5.848 2.047 5.848c.341.972 1.341 1.55 2.353 1.358l6.088-1.15s2.048 5.847 2.048 5.847c.341.973 1.341 1.55 2.353 1.359l6.088-1.15s1.353 3.862 1.353 3.862c.269.768.961 1.31 1.772 1.386.81.075 1.591-.328 1.998-1.033l3.883-6.725c1.622-2.81 2.451-6.007 2.397-9.252-.096-5.818-.266-16.093-.37-22.401-.031-1.878-1.045-3.602-2.672-4.542-1.627-.939-3.627-.955-5.269-.043-5.515 3.064-14.498 8.055-19.585 10.881-2.837 1.575-5.192 3.892-6.814 6.702 0 0-3.882 6.724-3.882 6.724zm5.878-1.848 1.613-2.793c1.245-2.156 3.052-3.934 5.228-5.143 5.087-2.826 14.07-7.817 19.586-10.881.362-.201.803-.197 1.162.01.358.207.582.587.589 1.001.104 6.309.274 16.584.37 22.402.041 2.49-.595 4.944-1.84 7.1 0 0-1.612 2.793-1.612 2.793s-.445-1.269-.445-1.269c-.34-.972-1.34-1.549-2.353-1.358l-6.088 1.15s-2.047-5.847-2.047-5.847c-.341-.973-1.341-1.55-2.353-1.359l-6.088 1.15s-2.048-5.847-2.048-5.847c-.341-.972-1.341-1.55-2.353-1.358z" fill="#000000" style="fill: rgb(128, 0, 255);"></path><path d="m228.477 35.004c.65.376 1.452.372 2.099-.008.646-.381 1.038-1.08 1.026-1.83l-.22-13.325c-.031-1.878-1.045-3.602-2.672-4.542-1.627-.939-3.627-.955-5.269-.043 0 0-11.65 6.472-11.65 6.472-.656.364-1.065 1.054-1.071 1.804s.392 1.446 1.041 1.821zm-1.102-5.447-10.345-5.973s8.435-4.686 8.435-4.686c.362-.201.803-.197 1.162.01.358.207.582.587.589 1.001z" fill="#000000" style="fill: rgb(128, 0, 255);"></path><path d="m99.19 233.053h68.287c6.596 0 11.952-5.356 11.952-11.952 0-6.597-5.356-11.952-11.952-11.952h-68.287c-6.597 0-11.952 5.355-11.952 11.952 0 6.596 5.355 11.952 11.952 11.952zm0-4.167c-4.297 0-7.785-3.489-7.785-7.785 0-4.297 3.488-7.786 7.785-7.786h68.287c4.297 0 7.785 3.489 7.785 7.786 0 4.296-3.488 7.785-7.785 7.785z" fill="#000000" style="fill: rgb(128, 0, 255);"></path><path d="m90.85 213.315h85.173c6.596 0 11.952-5.355 11.952-11.952 0-6.596-5.356-11.951-11.952-11.951h-85.173c-6.596 0-11.952 5.355-11.952 11.951 0 6.597 5.356 11.952 11.952 11.952zm0-4.166c-4.297 0-7.785-3.489-7.785-7.786 0-4.296 3.488-7.785 7.785-7.785h85.173c4.297 0 7.785 3.489 7.785 7.785 0 4.297-3.488 7.786-7.785 7.786z" fill="#000000" style="fill: rgb(128, 0, 255);"></path><path d="m88.878 192.166c.287.845 1.08 1.412 1.972 1.412h85.173c.891 0 1.683-.566 1.971-1.41 1.944-5.688 4.924-10.997 8.814-15.646 10.336-12.206 16.572-27.994 16.572-45.227 0-38.66-31.387-70.047-70.047-70.047s-70.047 31.387-70.047 70.047c0 17.238 6.24 33.029 16.729 45.113 3.915 4.681 6.912 10.027 8.863 15.758zm3.441-2.754c-2.114-5.686-5.19-10.996-9.118-15.689-.008-.009-.016-.019-.024-.029-9.863-11.354-15.724-26.197-15.724-42.399 0-36.36 29.52-65.88 65.88-65.88 36.361 0 65.881 29.52 65.881 65.88 0 16.211-5.868 31.062-15.593 42.543-.003.003-.005.006-.008.009-3.898 4.658-6.953 9.926-9.058 15.565z" fill="#000000" style="fill: rgb(128, 0, 255);"></path><path d="m172.222 75.829c-.528.913-.289 2.077.555 2.709 9.339 6.997 16.762 16.411 21.335 27.311.306.73.999 1.223 1.789 1.273s1.54-.352 1.936-1.038l31.518-54.59c1.622-2.81 2.451-6.007 2.397-9.252-.096-5.818-.266-16.093-.37-22.401-.031-1.878-1.045-3.602-2.672-4.542-1.627-.939-3.627-.955-5.269-.043-5.515 3.064-14.498 8.055-19.585 10.881-2.837 1.575-5.192 3.892-6.814 6.702 0 0-24.82 42.99-24.82 42.99zm4.52.504 23.909-41.411c1.245-2.156 3.052-3.934 5.228-5.143 5.087-2.826 14.07-7.817 19.586-10.881.362-.201.803-.197 1.162.01.358.207.582.587.589 1.001.104 6.309.274 16.584.37 22.402.041 2.49-.595 4.944-1.84 7.1 0 0-29.493 51.084-29.493 51.084-4.636-9.444-11.335-17.695-19.511-24.162z" fill="#000000" style="fill: rgb(128, 0, 255);"></path><path d="m68.83 106.084c.395.686 1.145 1.088 1.935 1.038s1.484-.543 1.79-1.273c4.575-10.902 11.998-20.316 21.335-27.311.844-.632 1.082-1.796.555-2.709l-24.82-42.99c-1.623-2.81-3.978-5.127-6.814-6.702-5.087-2.826-14.07-7.817-19.586-10.881-1.642-.912-3.642-.896-5.268.043-1.627.94-2.641 2.664-2.672 4.542-.105 6.308-.274 16.583-.37 22.401-.054 3.245.775 6.442 2.397 9.252 0 0 31.518 54.59 31.518 54.59zm1.584-5.589-29.494-51.084c-1.244-2.156-1.88-4.61-1.839-7.1.096-5.818.266-16.093.37-22.402.007-.414.23-.794.589-1.001s.8-.211 1.162-.01c5.515 3.064 14.498 8.055 19.585 10.881 2.177 1.209 3.984 2.987 5.229 5.143 0 0 23.909 41.411 23.909 41.411-8.174 6.465-14.874 14.715-19.51 24.16z" fill="#000000" style="fill: rgb(128, 0, 255);"></path><path d="m112.129 95.78c-.184.602-1.554 5.187-2.675 11.562-6.123 1.023-6.423 1.314-11.554 2.679-4.045 1.076-7.58 3.732-7.58 8.045 0 2.368 1.029 4.061 2.631 5.38 1.266 1.042 2.946 1.827 4.661 2.566.067.029.135.054.205.076 0 0 4.834 1.507 11.737 2.714.998 6.148 1.015 6.528 2.595 11.617 1.247 4.018 3.736 7.498 8.022 7.498 4.261 0 6.671-3.613 7.999-7.431.012-.032.022-.064.031-.097 0 0 1.398-4.839 2.596-11.697 6.85-1.196 11.685-2.591 11.685-2.591.025-.007.049-.015.073-.023 0 0 2.551-.844 4.592-2.543 1.622-1.351 2.874-3.208 2.874-5.469 0-4.317-3.623-7.059-7.591-8.048-.446-.127-5.079-1.427-11.521-2.558-1.048-6.109-1.569-6.355-2.668-11.558-.994-4.711-3.721-7.686-8.07-7.686-4.31 0-6.952 3.089-8.042 7.564zm-.536 15.433c.886-.144 1.58-.838 1.724-1.724 1.182-7.294 2.81-12.538 2.81-12.538.014-.044.027-.089.037-.134.582-2.429 1.674-4.434 4.007-4.434 2.313 0 3.464 1.874 3.993 4.379 1.163 5.508 1.677 5.375 2.878 12.834.142.885.835 1.58 1.719 1.725 7.285 1.195 12.567 2.715 12.567 2.715.026.007.051.014.077.021 2.149.531 4.449 1.672 4.449 4.009 0 .97-.677 1.687-1.373 2.267-1.279 1.065-2.843 1.651-3.166 1.766-.551.158-5.705 1.596-12.661 2.731-.883.144-1.576.836-1.72 1.72-1.108 6.792-2.505 11.866-2.705 12.577-.443 1.272-.979 2.525-1.772 3.462-.572.674-1.297 1.161-2.286 1.161-1.24 0-2.089-.71-2.727-1.648-.575-.846-.991-1.871-1.316-2.919-1.624-5.232-1.512-5.265-2.703-12.526-.145-.884-.84-1.577-1.725-1.719-6.695-1.078-11.687-2.54-12.522-2.791-1.092-.468-2.149-.933-3.035-1.519-.922-.609-1.656-1.348-1.656-2.562 0-2.35 2.281-3.432 4.485-4.019 5.342-1.421 5.278-1.645 12.621-2.834z" fill="#000000" style="fill: rgb(128, 0, 255);"></path><path d="m146.579 139.598c-3.529.603-3.849.814-7.062 1.669-2.951.785-5.464 2.783-5.464 5.93 0 3.043 2.386 4.629 5.176 5.831.067.029.135.054.205.076 0 0 2.939.917 7.201 1.693.577 3.567.632 3.932 1.625 7.132.908 2.924 2.788 5.383 5.907 5.383 3.095 0 4.919-2.543 5.884-5.316.012-.032.022-.064.031-.097 0 0 .85-2.94 1.615-7.172 4.224-.762 7.16-1.611 7.16-1.611l-.01.002.141-.043c.317-.107 1.963-.701 3.257-1.764 1.294-1.062 2.19-2.541 2.027-4.306-.285-3.074-2.617-5.023-5.452-5.737-.348-.099-3.138-.877-7.049-1.588-.624-3.494-.964-3.784-1.649-7.027-.728-3.447-2.773-5.57-5.955-5.57-3.152 0-5.138 2.202-5.934 5.476-.131.427-.948 3.185-1.654 7.039zm2.135 3.87c.885-.144 1.58-.838 1.723-1.723.758-4.678 1.802-8.042 1.802-8.042.013-.044.026-.089.037-.134.291-1.216.723-2.319 1.891-2.319 1.148 0 1.616 1.02 1.878 2.264.752 3.562 1.086 3.475 1.862 8.299.143.885.835 1.58 1.72 1.725 4.682.768 8.076 1.744 8.076 1.744.026.008.051.014.077.021 1.126.278 2.23.867 2.343 2.087.016.173-.113.295-.221.416-.202.227-.455.416-.705.578-.695.45-1.544.744-1.544.744-.443.124-3.713 1.025-8.095 1.74-.884.144-1.576.837-1.721 1.721-.703 4.309-1.586 7.542-1.731 8.061-.216.62-.463 1.215-.799 1.715-.275.409-.603.78-1.14.78-.54 0-.889-.342-1.167-.751-.334-.492-.572-1.091-.761-1.7-1.042-3.357-.968-3.378-1.732-8.036-.145-.885-.84-1.577-1.725-1.72-4.17-.671-7.31-1.574-7.978-1.773-.674-.286-1.307-.563-1.837-.913-.391-.259-.748-.54-.748-1.055 0-.55.342-.924.759-1.21.466-.32 1.033-.54 1.611-.693 3.439-.916 3.398-1.06 8.125-1.826z" fill="#000000" style="fill: rgb(128, 0, 255);"></path></svg>