<!-- icon666.com - MILLIONS vector ICONS FREE --><svg viewBox="0 0 24 24" xmlns="http://www.w3.org/2000/svg"><g id="Layer_2" data-name="Layer 2"><path d="m20.762 7.044h-3.448a1.484 1.484 0 0 1 -1.414-1.025l-1.062-3.279a2.984 2.984 0 0 0 -5.676 0l-1.062 3.278a1.483 1.483 0 0 1 -1.414 1.026h-3.448a2.983 2.983 0 0 0 -1.754 5.4l2.788 2.027a1.482 1.482 0 0 1 .541 1.66l-1.066 3.275a2.938 2.938 0 0 0 1.085 3.336 2.937 2.937 0 0 0 3.506 0l2.789-2.025a1.483 1.483 0 0 1 1.746 0l2.788 2.026a2.984 2.984 0 0 0 4.592-3.335l-1.065-3.279a1.48 1.48 0 0 1 .539-1.659l2.789-2.027a2.983 2.983 0 0 0 -1.754-5.4z" fill="#7fbde7" style="fill: rgb(255, 128, 0);"></path></g></svg>